HIERARCHY
ROOT Hips
{
    OFFSET 0.000000 0.000000 0.000000
    CHANNELS 6 Xposition Yposition Zposition Zrotation Xrotation Yrotation
    JOINT Spine
    {
        OFFSET -0.000000 7.897928 0.000000
        CHANNELS 3 Zrotation Xrotation Yrotation
        JOINT Spine1
        {
            OFFSET -0.000000 22.881742 0.000000
            CHANNELS 3 Zrotation Xrotation Yrotation
            JOINT Neck
            {
                OFFSET -0.000000 22.787771 2.071616
                CHANNELS 3 Zrotation Xrotation Yrotation
                JOINT Head
                {
                    OFFSET -0.000000 13.484266 -1.926324
                    CHANNELS 3 Zrotation Xrotation Yrotation
                    End Site
                    {
                        OFFSET -0.000000 24.079046 0.000000
                    }
                }
            }
            JOINT LeftShoulder
            {
                OFFSET 3.854963 21.096247 -0.110468
                CHANNELS 3 Zrotation Xrotation Yrotation
                JOINT LeftArm
                {
                    OFFSET 10.572188 0.000000 0.000000
                    CHANNELS 3 Zrotation Xrotation Yrotation
                    JOINT LeftForeArm
                    {
                        OFFSET 34.932854 0.000000 0.000000
                        CHANNELS 3 Zrotation Xrotation Yrotation
                        JOINT LeftHand
                        {
                            OFFSET 23.279285 0.000000 0.000000
                            CHANNELS 3 Zrotation Xrotation Yrotation
                            End Site
                            {
                                OFFSET 14.447429 0.000000 0.000000
                            }
                        }
                    }
                }
            }
            JOINT RightShoulder
            {
                OFFSET -3.825334 21.096247 -0.110468
                CHANNELS 3 Zrotation Xrotation Yrotation
                JOINT RightArm
                {
                    OFFSET -10.572188 0.000000 0.000000
                    CHANNELS 3 Zrotation Xrotation Yrotation
                    JOINT RightForeArm
                    {
                        OFFSET -34.932854 0.000000 0.000000
                        CHANNELS 3 Zrotation Xrotation Yrotation
                        JOINT RightHand
                        {
                            OFFSET -23.279285 0.000000 0.000000
                            CHANNELS 3 Zrotation Xrotation Yrotation
                            End Site
                            {
                                OFFSET -14.447429 0.000000 0.000000
                            }
                        }
                    }
                }
            }
        }
    }
    JOINT LeftUpLeg
    {
        OFFSET 9.631618 0.000000 0.000000
        CHANNELS 3 Zrotation Xrotation Yrotation
        JOINT LeftLeg
        {
            OFFSET -0.000000 -35.385456 0.000000
            CHANNELS 3 Zrotation Xrotation Yrotation
            JOINT LeftFoot
            {
                OFFSET -0.000000 -43.284000 0.000000
                CHANNELS 3 Zrotation Xrotation Yrotation
                JOINT LeftToeBase
                {
                    OFFSET -0.000000 -6.260552 14.447429
                    CHANNELS 3 Zrotation Xrotation Yrotation
                    End Site
                    {
                        OFFSET -0.000000 0.000000 3.852648
                    }
                }
            }
        }
    }
    JOINT RightUpLeg
    {
        OFFSET -9.631618 0.000000 0.000000
        CHANNELS 3 Zrotation Xrotation Yrotation
        JOINT RightLeg
        {
            OFFSET -0.000000 -35.385456 0.000000
            CHANNELS 3 Zrotation Xrotation Yrotation
            JOINT RightFoot
            {
                OFFSET -0.000000 -43.284000 0.000000
                CHANNELS 3 Zrotation Xrotation Yrotation
                JOINT RightToeBase
                {
                    OFFSET -0.000000 -6.260552 14.447429
                    CHANNELS 3 Zrotation Xrotation Yrotation
                    End Site
                    {
                        OFFSET -0.000000 0.000000 3.852648
                    }
                }
            }
        }
    }
}
MOTION
Frames:    12
Frame Time:    0.008333
-54.771996    93.769058    36.101471    -5.550600    -1.699685    78.844383    -0.512336    -0.616246    1.288299    3.146352    0.634494    1.273632    -0.992660    8.723298    -9.614751    5.917313    1.612234    -9.184443    0.066411    10.145677    6.763822    -46.972782    56.139118    -10.774539    3.145146    -22.518837    -63.678780    -1.037889    -20.711502    0.951174    -1.074433    13.058645    3.532214    46.995804    56.463928    19.974247    -4.640371    -17.329481    33.526196    -16.497515    -15.647377    -2.452000    4.818521    -8.621223    6.154498    -8.081299    30.819450    -7.532784    -17.152483    11.036599    16.569670    0.000000    0.000000    0.000000    -3.486975    -16.441647    -1.978724    8.838390    34.617298    -5.216513    -1.049407    21.621164    7.896483    0.000000    0.000000    0.000000    
-53.711845    95.382164    35.967766    -5.521781    -1.321911    78.833931    -0.569149    -1.303432    1.466711    2.547838    1.717249    1.435030    -0.342755    8.030928    -9.788727    5.176421    2.058421    -9.523639    0.766219    10.007192    7.182984    -47.079029    55.690414    -10.823510    2.381577    -21.405235    -64.829346    -0.238035    -19.993586    1.162549    -1.323421    12.739381    2.481778    46.881908    56.570461    20.314478    -4.528533    -17.444983    34.939499    -15.154064    -15.630025    -3.510344    3.781625    -8.248244    5.932120    -6.761014    29.062323    -7.452017    -20.995037    16.301035    18.929716    0.000000    0.000000    0.000000    -3.692039    -16.066711    -2.086649    8.056049    33.814159    -5.238717    0.067929    25.308500    6.244594    0.000000    0.000000    0.000000    
-52.671593    96.902908    35.877396    -5.448213    -1.273851    78.737778    -0.949180    -1.562966    1.747632    3.167821    2.069204    1.703369    -0.279224    9.028615    -10.140923    4.945880    0.654454    -9.866277    0.552676    10.035425    6.978632    -48.009792    55.561398    -9.782997    1.582192    -21.270014    -65.581390    0.689825    -20.315441    0.454913    -1.491219    12.681748    1.735968    46.935539    56.534473    19.539448    -3.781861    -17.578182    36.913734    -15.608459    -15.836296    -4.053320    3.358840    -8.061109    5.248158    -6.372928    28.152599    -6.466273    -23.402319    20.354794    21.136480    0.000000    0.000000    0.000000    -3.517362    -15.887869    -1.438776    7.961727    33.711697    -5.862397    0.764075    27.323870    3.670097    0.000000    0.000000    0.000000    
-51.742947    98.370605    35.804588    -5.470346    -1.100507    78.612152    -0.973713    -2.012110    2.050845    2.708878    3.004661    1.996900    0.443990    8.706260    -10.370744    4.415776    0.253767    -10.212103    1.301851    9.861405    6.986867    -48.740471    54.381218    -9.165474    0.152828    -19.767683    -67.076981    2.726770    -19.628712    1.992023    -1.016880    12.676985    0.903188    46.366924    56.399361    19.402143    -3.618249    -17.853970    39.050060    -14.877717    -15.970819    -5.239433    2.911168    -8.329998    4.552081    -6.148932    27.981987    -5.952010    -24.911394    23.516012    23.043594    0.000000    0.000000    0.000000    -3.425190    -16.218483    -0.362245    8.335350    34.171009    -6.654960    1.236258    28.692261    0.705816    0.000000    0.000000    0.000000    
-50.812210    99.746445    35.701805    -5.512512    -0.856014    78.603065    -1.039095    -2.232559    2.280727    2.242812    3.360038    2.235183    0.790993    8.640121    -10.514290    4.465023    0.331797    -10.382786    1.777062    10.081505    6.733578    -49.395485    53.317322    -8.637918    -1.138367    -19.110067    -67.735962    3.593029    -19.774807    1.920628    -0.920031    12.474098    0.869632    47.784920    56.533348    17.610985    -4.318102    -18.499432    40.273067    -13.449292    -16.328947    -5.850467    2.464203    -8.853074    3.070315    -6.698227    28.141665    -4.493824    -24.873369    26.533224    23.619293    0.000000    0.000000    0.000000    -3.545184    -16.738432    0.420052    9.133294    35.085430    -8.148602    1.523363    28.691092    -1.524286    0.000000    0.000000    0.000000    
-49.998989    101.007339    35.582745    -5.709775    -0.539240    78.574532    -1.182619    -2.626849    2.410207    1.940078    4.127235    2.367427    1.587455    8.658829    -10.524341    3.514309    -0.675280    -10.549515    1.933140    9.814223    6.789731    -50.000904    53.686275    -7.919822    -1.272398    -19.642302    -68.184662    3.629404    -20.382328    2.360996    -0.876673    11.872292    0.819062    48.600628    57.161808    16.157286    -4.796312    -18.769978    41.811386    -12.859242    -16.352776    -6.222709    2.118040    -9.802047    1.935407    -7.423063    28.684034    -3.737272    -25.222603    28.018654    23.993092    0.000000    0.000000    0.000000    -3.740297    -17.634583    1.354321    10.141986    36.299030    -9.227256    1.303317    28.068457    -2.966016    0.000000    0.000000    0.000000    
-49.229218    102.168083    35.500282    -5.871673    -0.414589    78.416489    -0.997284    -2.656911    2.591370    1.391590    4.444056    2.560499    1.661449    8.987809    -10.470894    3.789205    -1.575392    -10.424271    2.171565    9.795977    6.662543    -50.705730    52.670467    -6.854655    -2.056729    -19.075565    -68.891151    3.657704    -20.321468    2.776260    -0.492225    11.748578    0.967962    49.312447    57.016979    14.723996    -5.017944    -19.170801    43.593773    -12.717484    -16.503555    -7.112868    2.118225    -10.960795    0.633886    -8.654545    29.731550    -2.842107    -25.038847    28.528120    23.635384    0.000000    0.000000    0.000000    -3.679798    -18.575914    2.088562    10.921688    37.421211    -10.037991    3.238476    27.679211    -4.899493    0.000000    0.000000    0.000000    
-48.551743    103.211166    35.361069    -5.943234    0.003665    78.290718    -1.163249    -2.684338    2.787061    0.869567    5.066202    2.775852    1.905532    8.358879    -10.515592    3.723141    -1.396238    -10.514288    2.448590    9.571911    6.667835    -51.082329    52.719940    -6.398536    -2.103328    -19.462948    -69.054451    3.218427    -20.750431    2.753957    -0.159094    11.563940    1.028397    49.605534    56.977398    13.768573    -5.416180    -19.556568    45.117901    -12.252790    -16.600677    -7.975974    1.780731    -12.100245    -0.648436    -9.905491    30.596422    -1.900431    -25.939493    28.575111    23.734261    0.000000    0.000000    0.000000    -4.097131    -19.591473    2.595443    11.959787    38.589336    -11.240227    3.031749    27.318588    -4.695383    0.000000    0.000000    0.000000    
-47.880207    104.090179    35.294064    -6.053276    0.129715    78.141281    -0.887641    -2.480070    2.781888    0.239601    5.322364    2.789962    0.217817    7.758021    -10.551446    6.145284    -0.472987    -10.108349    2.278641    9.601393    6.832427    -51.232784    51.946869    -5.528741    -2.370171    -19.077766    -69.381706    3.395451    -20.551285    2.559618    -0.146846    11.495556    1.783683    50.735603    56.842365    12.375734    -6.189907    -19.698900    46.169758    -11.879741    -16.363510    -8.313689    1.896716    -13.300364    -1.411878    -11.191260    31.537052    -1.397412    -25.859539    29.189695    23.682253    0.000000    0.000000    0.000000    -4.188384    -20.472698    2.945541    12.793995    39.327061    -11.813107    3.310487    27.013042    -4.128668    0.000000    0.000000    0.000000    
-47.159828    104.890549    35.257084    -6.062870    0.090160    78.006775    -0.748105    -2.367114    2.904421    0.052349    5.937642    2.917183    1.053778    8.289708    -10.318835    5.003603    -2.206826    -10.017076    2.284940    9.654405    7.027132    -51.098602    51.640667    -5.356711    -2.591758    -18.913536    -69.838722    3.556756    -20.532881    2.920178    -0.237786    11.586576    2.144490    51.077484    56.475441    11.790944    -6.151512    -19.578596    47.471035    -13.158686    -15.990997    -9.170649    2.328266    -14.322487    -1.870482    -12.465891    32.677231    -1.464161    -26.828302    28.382452    24.469297    0.000000    0.000000    0.000000    -4.088531    -21.217358    3.014041    13.342845    40.090347    -12.039844    2.686618    26.707893    -3.141164    0.000000    0.000000    0.000000    
-46.511990    105.509735    35.234970    -6.059021    0.021762    77.944092    -0.525154    -1.979798    2.974190    -0.454331    6.186330    3.007846    1.262674    8.375836    -10.230361    5.152442    -2.751859    -9.891397    2.457941    9.556309    6.875352    -51.856014    51.544907    -4.506998    -1.902525    -19.394390    -69.499672    3.256844    -20.559504    2.865388    0.147610    11.568020    2.555009    51.549858    56.247677    10.915930    -6.554383    -19.595247    48.103237    -13.270683    -15.696264    -9.971160    2.701898    -15.313004    -1.674696    -13.254411    33.588734    -1.367385    -26.716110    28.271284    24.938318    0.000000    0.000000    0.000000    -3.955908    -21.872936    2.623002    13.535763    40.791920    -11.994691    1.283262    25.434629    -1.737264    0.000000    0.000000    0.000000    
-45.910675    106.026695    35.184616    -6.150875    0.072139    77.832214    -0.793271    -1.456140    3.035171    0.168933    5.989152    3.036421    0.057892    8.686883    -10.227782    6.048679    -3.133004    -9.633104    1.465644    9.681064    6.803208    -51.713547    51.457069    -3.975532    -1.680598    -19.674595    -69.083199    3.570877    -20.682693    2.698458    -0.632689    12.079167    3.075045    52.011612    55.831421    10.694969    -6.751983    -19.544012    48.566330    -13.670293    -15.456305    -10.285502    2.955763    -16.374134    -1.110416    -13.749278    34.568897    -1.249551    -25.682554    27.745455    25.074493    0.000000    0.000000    0.000000    -4.038093    -22.738213    2.600209    14.311149    41.418736    -12.561895    -0.163573    23.729313    -1.295166    0.000000    0.000000    0.000000    
